<?xml version="1.0" encoding="iso-8859-1"?>
<!-- Generator: Adobe Illustrator 19.0.0, SVG Export Plug-In . SVG Version: 6.00 Build 0)  -->
<svg version="1.1" id="Layer_1" xmlns="http://www.w3.org/2000/svg" xmlns:xlink="http://www.w3.org/1999/xlink" x="0px" y="0px"
	 viewBox="0 0 512 512" style="enable-background:new 0 0 512 512;" xml:space="preserve">
<path style="fill:#C3CFD9;" d="M428.522,510.034h-72.348c-9.22,0-16.696-7.475-16.696-16.696V343.078
	c0-9.22,7.475-16.696,16.696-16.696h72.348c9.22,0,16.696,7.475,16.696,16.696v150.261
	C445.217,502.559,437.742,510.034,428.522,510.034z"/>
<path style="fill:#DAE1E6;" d="M155.826,510.034H83.478c-9.22,0-16.696-7.475-16.696-16.696V343.078
	c0-9.22,7.475-16.696,16.696-16.696h72.348c9.22,0,16.696,7.475,16.696,16.696v150.261
	C172.522,502.559,165.047,510.034,155.826,510.034z"/>
<path style="fill:#EDF0F2;" d="M372.87,510.034H139.13V276.295c0-9.22,7.475-16.696,16.696-16.696h200.348
	c9.22,0,16.696,7.475,16.696,16.696V510.034z"/>
<path style="fill:#DAE1E6;" d="M356.174,259.6H256v250.435h116.87V276.295C372.87,267.075,365.394,259.6,356.174,259.6z"/>
<path style="fill:#6B7A99;" d="M306.087,510.034H205.913v-82.631c0-13.293,4.913-26.24,14.186-35.765
	c9.633-9.896,22.614-15.302,36.409-15.166c27.602,0.272,49.579,23.319,49.579,50.923V510.034z"/>
<path style="fill:#5A6680;" d="M256.508,376.471c-0.17-0.002-0.338,0.008-0.508,0.008v133.555h50.087v-82.64
	C306.087,399.791,284.11,376.743,256.508,376.471z"/>
<path style="fill:#FFC033;" d="M256,192.817c-9.22,0-16.696-7.475-16.696-16.696v-55.652c0-9.22,7.475-16.696,16.696-16.696
	s16.696,7.475,16.696,16.696v55.652C272.696,185.342,265.22,192.817,256,192.817z"/>
<path style="fill:#F9A926;" d="M272.696,176.121v-55.652c0-9.22-7.475-16.696-16.696-16.696v89.043
	C265.22,192.817,272.696,185.342,272.696,176.121z"/>
<path style="fill:#EDF0F2;" d="M83.478,510.034H16.696C7.475,510.034,0,502.559,0,493.339v-267.13
	c0-9.22,7.475-16.696,16.696-16.696h66.783c9.22,0,16.696,7.475,16.696,16.696v267.13
	C100.174,502.559,92.699,510.034,83.478,510.034z"/>
<g>
	<path style="fill:#FFC033;" d="M50.087,176.121c-9.22,0-16.696-7.475-16.696-16.696v-33.391c0-9.22,7.475-16.696,16.696-16.696
		s16.696,7.475,16.696,16.696v33.391C66.783,168.646,59.307,176.121,50.087,176.121z"/>
	<path style="fill:#FFC033;" d="M50.087,142.73C22.469,142.73,0,120.261,0,92.643C0,72.47,12.005,54.358,30.585,46.499
		c8.493-3.594,18.288,0.381,21.88,8.873s-0.381,18.288-8.873,21.88c-6.196,2.622-10.201,8.663-10.201,15.391
		c0,9.206,7.49,16.696,16.696,16.696c6.728,0,12.769-4.005,15.391-10.202c3.593-8.491,13.388-12.466,21.88-8.873
		c8.493,3.592,12.465,13.388,8.873,21.88C88.372,130.725,70.26,142.73,50.087,142.73z"/>
</g>
<path style="fill:#3AACE6;" d="M100.174,242.904H0v-49.209c0-27.666,22.632-51.076,50.296-50.964
	c27.561,0.111,49.878,22.465,49.878,50.086V242.904z"/>
<path style="fill:#DAE1E6;" d="M495.304,510.034h-66.783c-9.22,0-16.696-7.475-16.696-16.696v-267.13
	c0-9.22,7.475-16.696,16.696-16.696h66.783c9.22,0,16.696,7.475,16.696,16.696v267.13C512,502.559,504.525,510.034,495.304,510.034z
	"/>
<g>
	<path style="fill:#F9A926;" d="M461.913,176.121c-9.22,0-16.696-7.475-16.696-16.696v-33.391c0-9.22,7.475-16.696,16.696-16.696
		s16.696,7.475,16.696,16.696v33.391C478.609,168.646,471.133,176.121,461.913,176.121z"/>
	<path style="fill:#F9A926;" d="M461.913,142.73c-27.618,0-50.087-22.469-50.087-50.087c0-20.173,12.005-38.285,30.585-46.145
		c8.491-3.594,18.288,0.381,21.88,8.873c3.592,8.493-0.381,18.288-8.873,21.88c-6.196,2.622-10.201,8.663-10.201,15.391
		c0,9.206,7.49,16.696,16.696,16.696c6.728,0,12.769-4.005,15.391-10.202c3.592-8.491,13.389-12.466,21.88-8.873
		c8.493,3.592,12.465,13.388,8.873,21.88C500.198,130.725,482.086,142.73,461.913,142.73z"/>
</g>
<path style="fill:#2B9FD9;" d="M512,242.904H411.826v-49.209c0-27.666,22.632-51.076,50.296-50.964
	C489.683,142.844,512,165.197,512,192.818V242.904z"/>
<path style="fill:#FFC033;" d="M256,131.6c-36.824,0-66.783-29.959-66.783-66.783c0-26.898,16.008-51.049,40.782-61.528
	c8.493-3.593,18.288,0.381,21.881,8.872c3.593,8.493-0.381,18.288-8.872,21.881c-12.393,5.241-20.4,17.321-20.4,30.775
	c0,18.412,14.979,33.391,33.391,33.391c13.453,0,25.532-8.007,30.775-20.399c3.593-8.493,13.387-12.467,21.88-8.873
	c8.493,3.592,12.465,13.389,8.873,21.88C307.049,115.592,282.898,131.6,256,131.6z"/>
<path style="fill:#F9A926;" d="M317.528,90.817c3.593-8.491-0.381-18.288-8.873-21.88c-8.494-3.594-18.288,0.38-21.88,8.873
	C281.532,90.201,269.453,98.208,256,98.208V131.6C282.898,131.6,307.049,115.592,317.528,90.817z"/>
<path style="fill:#3AACE6;" d="M316.337,196.334c-22.443-17.456-43.641-33.944-43.641-53.604h-33.391
	c0,19.661-21.198,36.148-43.641,53.604c-26.498,20.609-56.533,43.969-56.533,79.961v16.696H372.87v-16.696
	C372.87,240.303,342.835,216.943,316.337,196.334z"/>
<path style="fill:#2B9FD9;" d="M316.337,196.334c-22.443-17.456-43.641-33.944-43.641-53.604H256v150.261h116.87v-16.696
	C372.87,240.303,342.835,216.943,316.337,196.334z"/>
<g>
</g>
<g>
</g>
<g>
</g>
<g>
</g>
<g>
</g>
<g>
</g>
<g>
</g>
<g>
</g>
<g>
</g>
<g>
</g>
<g>
</g>
<g>
</g>
<g>
</g>
<g>
</g>
<g>
</g>
</svg>
