<?xml version="1.0" encoding="iso-8859-1"?>
<!-- Generator: Adobe Illustrator 18.1.1, SVG Export Plug-In . SVG Version: 6.00 Build 0)  -->
<svg version="1.1" id="Capa_1" xmlns="http://www.w3.org/2000/svg" xmlns:xlink="http://www.w3.org/1999/xlink" x="0px" y="0px"
	 viewBox="0 0 197.513 197.513" style="enable-background:new 0 0 197.513 197.513;" xml:space="preserve">
<g>
	<path style="fill:#010002;" d="M193.704,42.506c0-22.157-20.238-39.625-22.55-41.543L169.969,0l-1.185,0.97
		c-2.312,1.915-22.55,19.383-22.55,41.54v1.872h2.376c-0.999,1.435-1.539,3.131-1.539,4.885c0,4.109,2.885,7.573,6.939,8.403v14.405
		c-12.501-25.152-52.738-43.44-54.499-44.224l-0.755-0.34l-0.762,0.34c-1.761,0.784-41.991,19.065-54.488,44.224V57.68
		c3.937-0.87,6.75-4.33,6.75-8.414c0-1.75-0.544-3.446-1.542-4.885h2.57V42.51c0-22.157-20.238-39.625-22.55-41.543l-1.185-0.963
		l-1.192,0.97C25.44,1.732,3.81,19.895,3.81,42.513v1.872h2.194c-0.998,1.435-1.55,3.135-1.55,4.885
		c0,4.212,3.035,7.773,7.125,8.482v139.761h69.369l-0.007-68.088l-0.043-0.619l0.097-0.644c1.389-7.77,14.283-14.541,17.483-16.119
		c3.203,1.568,16.091,8.299,17.479,16.019l0.057,68.871l0.011,0.573h69.909V57.716c3.98-0.791,6.932-4.341,6.932-8.45
		c0-1.75-0.537-3.446-1.539-4.885h2.376V42.506z M7.6,40.645C8.613,23.291,23.594,8.503,27.548,4.892
		c3.951,3.611,18.925,18.399,19.941,35.753H7.6z M13.072,54.144c-2.688,0-4.878-2.19-4.878-4.878c0-2.695,2.19-4.885,4.878-4.885
		c0.458,0,0.931,0.079,1.492,0.265l25.102,0.079l0.49-0.079c0.558-0.183,1.034-0.265,1.485-0.265c2.695,0,4.885,2.19,4.885,4.885
		c0,2.688-2.19,4.878-4.885,4.878h-1.865v139.632H15.319V53.987L13.072,54.144z M119.747,128.255l-0.097-2.294h-0.387
		c-3.228-10.146-19.326-17.372-20.017-17.68l-0.769-0.351l-0.752,0.344c-0.168,0.075-16.774,7.494-20.024,17.687h-0.49l0.014,2.086
		c-0.061,0.469-0.1,0.945-0.1,1.421l0.086,64.305H43.75L43.739,86.562l-0.204-0.977l0.032-0.49h110.2v108.679h-34.01l0.075-64.305
		C119.836,128.996,119.8,128.517,119.747,128.255z M44.115,81.365c5.483-25.75,48.551-46.883,54.642-49.75
		c6.095,2.867,49.159,23.985,54.635,49.75C153.391,81.365,44.115,81.365,44.115,81.365z M155.693,44.381
		c0.451,0,0.927,0.079,1.474,0.265l25.113,0.079l0.494-0.079c0.548-0.183,1.024-0.265,1.474-0.265c2.702,0,4.885,2.19,4.885,4.885
		c0,2.727-2.183,4.864-4.996,4.864l-1.947-0.075V193.78h-24.444V55.934l-0.208-1.861l-1.85,0.072c-2.702,0-4.885-2.19-4.885-4.878
		C150.807,46.568,152.991,44.381,155.693,44.381z M150.024,40.645c1.009-17.354,15.997-32.142,19.945-35.753
		c3.951,3.611,18.925,18.399,19.945,35.753H150.024z"/>
</g>
<g>
</g>
<g>
</g>
<g>
</g>
<g>
</g>
<g>
</g>
<g>
</g>
<g>
</g>
<g>
</g>
<g>
</g>
<g>
</g>
<g>
</g>
<g>
</g>
<g>
</g>
<g>
</g>
<g>
</g>
</svg>
